/* XPM */
static char *isympy_xpm[] = {
"32 27 38 1",
" 	c None",
".	c #73AB49",
"+	c #B0AC89",
"@	c #93966B",
"#	c #7FA565",
"$	c #85B252",
"%	c #90AC70",
"&	c #578B45",
"*	c #4B7238",
"=	c #527546",
"-	c #72934D",
";	c #6F8E6A",
">	c #8B915A",
",	c #C5BA8A",
"'	c #B0A777",
")	c #396C31",
"!	c #A79A6E",
"~	c #D3CBAA",
"{	c #E0D4AC",
"]	c #6F744A",
"^	c #93C455",
"/	c #D4C27D",
"(	c #518E3A",
"_	c #4A5C37",
":	c #A59F84",
"<	c #D6C889",
"[	c #C8B677",
"}	c #5FA444",
"|	c #69AF3F",
"1	c #A48E5B",
"2	c #61973F",
"3	c #ABD45F",
"4	c #5FA43D",
"5	c #E0CF86",
"6	c #ACD366",
"7	c #385628",
"8	c #284A1C",
"9	c #4444FF",
"                .......         ",
"            +@#$..$.$$%%        ",
"           %..&*=-;>@>->.$%.    ",
"       ++,'$.)=!,~{{~{+!].$^.   ",
"       ,//@$(_:{~~~~+:'+@&^^..  ",
"       </[>$*]',++:''++': }}.|  ",
"       ,/123.]['!+'',,+,:   %-+ ",
"       ,/!*.$4.->!!+'',':       ",
"       ,5/]*.^3^..-@''++:       ",
"   66^.'5/1**4.^$36$-1!!:       ",
"    ;&('55[1]_**&.^^$>!!:       ",
"   ##))'5/[/[1]_)*}.^^-':       ",
"       '5[[555[>]]*.^3}!:       ",
"       </![//[5[':>}^^2@+       ",
"       ,/[111[5[!'!-..*>:       ",
"        <[[[[[5[!!@-$.*         ",
"          _]1[,,:!>}}4;         ",
"           787]]--}.()          ",
"            _888(}(()           ",
"              ;=&**;            ",
"    9   999             99      ",
"       9                9 9     ",
"    9   99  9  9 99 9   9 9 9  9",
"    9     9 9 9  9 9 9  99  9 9 ",
"    9     9 9 9  9 9 9  9   9 9 ",
"    9  999   9   9 9 9  9    9  ",
"           99              99   "};
